<svg version="1.2" xmlns="http://www.w3.org/2000/svg" viewBox="0 0 350 780" width="350" height="780">
	<style>
		.s0 { fill: #f5ca44;stroke: #000000;stroke-linecap: round;stroke-linejoin: round;stroke-width: .4 } 
		.s1 { fill: #308d57;stroke: #000000;stroke-linecap: round;stroke-linejoin: round;stroke-width: .4 } 
		.s2 { fill: #ffffff;stroke: #000000;stroke-linecap: round;stroke-linejoin: round;stroke-width: .4 } 
		.s3 { fill: #c13c1b;stroke: #000000;stroke-width: .5 } 
		.s4 { fill: #002255;stroke: #000000;stroke-linecap: round;stroke-linejoin: round;stroke-width: .4 } 
		.s5 { fill: none;stroke: #0044aa;stroke-linejoin: round;stroke-width: 4 } 
		.s6 { fill: none;stroke: #308d57;stroke-width: 2.5 } 
		.s7 { fill: none;stroke: #c13c1b;stroke-width: 2.5 } 
		.s8 { fill: none;stroke: #0044aa;stroke-width: 3.6 } 
		.s9 { fill: none;stroke: #fac53a;stroke-width: 9 } 
		.s10 { fill: none;stroke: #c13c1b;stroke-width: .4 } 
		.s11 { fill: none;stroke: #c13c1b;stroke-linecap: round;stroke-linejoin: round;stroke-width: .4 } 
		.s12 { fill: none;stroke: #000000;stroke-linecap: round;stroke-linejoin: round;stroke-width: .4 } 
		.s13 { fill: #f5ca44;stroke: #000000;stroke-width: .4 } 
		.s14 { fill: #000000;stroke: #000000;stroke-width: .4 } 
		.s15 { fill: #ffffff;stroke: #000000;stroke-width: .4 } 
		.s16 { fill: none;stroke: #000000;stroke-width: .4 } 
		.s17 { fill: #c13c1b;stroke: #000000;stroke-linecap: round;stroke-linejoin: round;stroke-width: .4 } 
		.s18 { fill: #ffffff;stroke: #ffffff;stroke-width: .6 } 
		.s19 { fill: #fac53a;stroke: #000000;stroke-linecap: round;stroke-linejoin: round;stroke-width: .4 } 
		.s20 { fill: #0044aa;stroke: #000000;stroke-linecap: round;stroke-linejoin: round;stroke-width: .4 } 
		.s21 { fill: none;stroke: #ff0000;stroke-width: .4 } 
		.s22 { opacity: .59;fill: none;stroke: #000000;stroke-linecap: round;stroke-linejoin: round;stroke-width: .4 } 
		.s23 { fill: #fac53a;stroke: #000000 } 
		.s24 { fill: none;stroke: #000000 } 
		.s25 { fill: #fac53a;stroke: #000000;stroke-width: .5 } 
	</style>
	<g id="layer1">
		<g id="g12318">
			<g id="Folder 1">
				<path id="path2694 copy" fill-rule="evenodd" class="s0" d="m61.67 463.96c-7.59 0.43-16.99 2.37-23.95 11.7l-3.99 2.01c1.62 4.5 5.71 2.38 7.2 0.27-0.89 1.91-0.68 3.21 1.72 3.5-0.69 1.8-0.09 2.9 2.11 3.19-1.39 1.7-0.08 3.5 1.92 3.29-0.89 2.3 0.21 3.4 1.51 3.49 3.21 1.79 18.94-15.38 20.63-16.78"/>
				<path id="path6961" fill-rule="evenodd" class="s1" d="m54.38 724.49c0 0 0.09-2.4 0 0.8-0.19 3.2 0.48 42.7-0.7 47.9l-1.4 0.01c-1.52-5.19-1.29-44.7-1.5-48-0.11-3.19-0.1-0.69-0.1-0.69l-1.98-443.2c-2.9-0.39-2.81-2.29-3.73-7.58-1.02-5.3-8.93-7.97-8.74-8.97 0.1-1 1.4-0.8 2.3-1.21 0.89-0.5 2.29-0.81 2.89-1.11 0.6-0.3 2.5-0.41 3.5-0.51 0.9-0.21 1.4-0.41 2.4-0.51 1-0.11 1.1-0.21 3.2-0.22 2.1-0.01 2.1 0.09 3.1 0.19 1 0.09 1.5 0.29 2.5 0.49 1 0.09 2.8 0.19 3.4 0.48 0.7 0.3 2.1 0.59 3.01 1.09 0.9 0.4 2.1 0.19 2.3 1.19 0.21 1-7.78 3.73-8.66 9.04-0.98 5.3-0.77 7.2-3.77 7.61z"/>
				<path id="path2694" fill-rule="evenodd" class="s0" d="m61.67 463.96c-7.59 0.43-16.99 2.37-23.95 11.7l-3.99 2.01c1.62 4.5 5.71 2.38 7.2 0.27-0.89 1.91-0.68 3.21 1.72 3.5-0.69 1.8-0.09 2.9 2.11 3.19-1.39 1.7-0.08 3.5 1.92 3.29"/>
				<path id="path17387" fill-rule="evenodd" class="s0" d="m51.1 470.9q0.2-0.2 0.5-0.3c-0.29 0.9 0.51 2.2 2.01 2.39l-2.01-2.39c2.7-1.41 5.3-0.72 2.71 1.89 2.39-1.81 6.8-1.03 2.01 2.79-0.79 1 0.22 3.3 2.21 2.59l-2.01-2.69c3.99-1.92 3.91 1.28 1.71 2.99 2.6-1.31 3.31 0.69 1.22 2.8l-1.22-2.8c-0.69 1.1 0.22 2.4 1.22 2.8q-0.4 0.4-0.9 0.8c-3.09 3.21-6.57 6.43-10.06 9.64q-0.1 0.1-0.3 0c-1.2-0.09-2.4-1.09-1.41-3.39-2.1 0.21-3.31-1.59-2.02-3.29-2.2-0.29-2.7-1.39-2.11-3.19-2.3-0.29-2.91-1.29-1.91-3.2q0.09-0.2 0.29-0.4c3.69-3.31 6.98-5.63 9.97-7.04m3.31 1.69c-0.69 1 0.91 2.59 1.91 2.59zm-9.55 12.04c0.4-0.2 11.56-9.45 11.56-9.45zm9.65-12.14c0 0-11.06 8.45-11.66 8.95zm1.91 2.79q0.1-0.1 0.1-0.1 0 0-0.1 0.1zm-9.45 12.64l11.56-9.85"/>
				<path id="path17436" fill-rule="evenodd" class="s2" d="m54.31 472.69c-0.2 0.1-0.3 0.3-0.7 0.3-1.8-0.19-2.11-2.09-2.01-2.39 2.7-1.41 5.4-0.62 2.71 1.99 2.39-1.91 6.8-1.13 2.01 2.69 4.29-2.12 4.21 1.08 2.01 2.79 2.5-1.31 3.11 0.79 1.12 2.9-1-0.4-1.91-1.7-1.12-2.9-1.89 0.71-2.9-1.89-2.01-2.89-1.1 0.1-2.7-1.49-2.01-2.49z"/>
			</g>
			<path id="path8840" fill-rule="evenodd" class="s3" d="m246.06 162.44c10.92 38.77 36.81 68.64 56.15 100.67 9.57 18.17 9.19 30.7 10.8 43.35l16.94-1.54c-1.87-20.07-9.06-36.18-16.9-49.37-20.27-34.11-48.42-61.5-66.99-93.11z"/>
			<path id="path2668" fill-rule="evenodd" class="s0" d="m145.09 766.78c23.78-5.53 41.44-16.17 48.1-21.25 0.15-0.36 0.42-2.54 0.42-2.86l2.03-29.8h3.61l-1.91 28c-5.87 9.45-35.54 22.98-52.4 25.88l-9.01-0.95c-1.05 2.67-2.54 6.65 3.6 7.5 60.1-0.21 44.52-1.14 68.27-2 1.59 3.01 13.48 1.64 15.21 1.39 3.61-1.4 4.43-8.16 3.81-9.75-1.36-3.55-2.24-8.86-3.18-13.58-1.47-12.09-0.6-24.18-0.63-36.28 5.98-37.82 3.84-80.11 1.06-113.48 5.59-51.14 11.77-107.84 14-159.74 27.41-18.16-7.96-67.37-5.09-75.94 3.74-25.39 15.06-47.74 27.15-69.79h0.42v2.33l-1.06 14.85c-0.56 23.34 3.9 51.92 2.64 72.38-4.93 25.75-2.32 50.4 0.33 75.9l0.21 12.94 19.31 0.43 0.85-12.94c3.41-22.42 5.34-44.83 4.24-67.25 0.4-2.71 0.31-4.95-0.75-7.64 1.15-24.39 1.24-48.79 0.75-73.18l0.21-14c0.47-4.06 1.09-8.28 1.49-12.09 1.91-18.88-4.72-28.6-15.49-32.67-15.39-5.82-28.7-8.94-42.64-12.83l-39.9-4.78-42.19 15.91c-18.99 8-16.24 23.25-18.24 36.91l-3.61 14.43c-7.66 26.46-13.97 53.15-18.24 80.18-17.95 21.96-32.76 45.93-44.49 71.85l-5.4 9 10.8 10.5 7.5-9c14.28-14.15 36.83-36.43 47.7-62.4 3.35-2.3 4.22-6.6 4.77-9.41 12.17-28.26 20.96-68.46 24.3-85.35l3.03-15.19 0.9-2.25h0.9v4.95q-2.1 9.83-2.4 19.65c-1.4 3.24-1.95 4.71 1.2 5.1 1.43 4.34 7.5 10.9 9.9 12.9 9.81 6.87 7.69 15.06 6.6 22.8-11.22 79.88-21.42 114.68 1.8 228.6-1.86 13.57 1.2 24.2 1.8 36.3-3.18 30.6-5.59 61.2-5.4 91.8-0.17 38.43-11.76 29.91-60.33 53.58l-7.64-0.43c-2.31 2.88-0.97 6.18 0.43 7.21l34.47 0.08c-5.56-1.43-3.77-4.78-2.93-7.55z"/>
			<g id="g22363">
				<path id="path2718" fill-rule="evenodd" class="s4" d="m267.45 565.41c2.65-0.87 4.81-0.53 6.9 0l-1.22-33.08 15.75 1.06c-0.48-2.37-0.64-4.74 0-7.11l-15.75 1.1c3.3-5.89 7.93-11.12 9.59-19.74 3.36-17.43-5.52-16.69-11.69-16.75-6.71-0.06-16.61 0.99-12.49 17.49 1.89 7.59 6.52 13.56 10.24 19l-17.7-1.1c0.6 2.37 0.54 4.74 0 7.11l17.7-1.06z"/>
				<path id="path2720" fill-rule="evenodd" class="s2" d="m268.78 522.51c-3.4-4.61-6.66-9.13-7.48-15.08-1.67-12.05 4.59-13.39 9.65-13.42 4.49-0.03 11.14 0.61 8.16 13.31-1.39 5.96-3.56 11.32-5.98 15.19-1.51 2.05-3.13 1.72-4.35 0z"/>
			</g>
			<path id="path2716" fill-rule="evenodd" class="s0" d="m262.46 472.64c-0.97 4.87-3.38 10.02-5.72 15.16-3.11 4.93-3.31 11.22-2.44 17.19l-0.32 5.62c8.74 1.04 0.29-10.62 5.83-14.96l0.85 8.06c1.58 1.51 3.15 2.71 4.45 0.32q2.34 2.6 4.67-0.32c1.9 2.46 3.46 0.73 5.09 0 1.75 1.37 3.59 1.85 4.77-1.27 0.35-8.51 2.9-16.78 2.29-29.27"/>
			<g id="g23466">
				<path id="path17950" fill-rule="evenodd" class="s2" d="m256.41 247.62l-26.79-7.79-39.16-4.2-27.79 10.42c5 22.96 23.07 34.2 45.13 34.97 20.9 0.73 30.73-4.52 37.65-11.68 6.57-6.8 9.73-15.34 10.96-21.72z"/>
				<path id="path22080" fill-rule="evenodd" class="s5" d="m245.27 244.37c-4.61 19.07-16.57 26.14-37.79 25.03-20.58-1.07-31.25-13.71-33.38-26.57l-0.33-0.94"/>
				<path id="path19147" fill-rule="evenodd" class="s6" d="m235.03 241.42c-4.24 14.92-12.95 18.07-27 17.35-13.18-0.68-23.29-9.4-23.2-20.21l-0.23-0.73"/>
				<path id="path20126" fill-rule="evenodd" class="s7" d="m241.86 243.43c-3.53 13.47-11.33 23.64-34.07 22.36-19.21-1.09-28.81-13.56-30-24.63l-0.21-0.68"/>
				<path id="path20138" fill-rule="evenodd" class="s8" d="m231.69 240.39c-0.07 0.23-0.03 0.18-0.11 0.42-2.06 6.67-4.92 15.97-23.49 14.33-12.6-1.12-19.17-8.72-19.56-15.74-0.02-0.52-0.2-1.79-0.22-2.44l-0.13-0.44"/>
				<path id="path20140" fill-rule="evenodd" class="s8" d="m238.43 242.47c-4.58 18.08-18.57 20.71-30.81 19.83-16.81-1.22-25.81-11.66-26.31-22.68l-0.2-0.52"/>
				<path id="path18173" fill-rule="evenodd" class="s9" d="m251.87 246.29c-5.29 20.23-17.29 31.23-43.59 29.96q-0.16-0.01-0.32-0.02-0.01 0-0.01 0c-30.53-1.58-38.2-21.25-40.57-31.03l-0.29-0.75"/>
				<g id="g39880">
					<path id="path22816" fill-rule="evenodd" class="s10" d="m197.34 276.98c0.55-1.59 0.26-4.39-0.13-6.23-1.32 1.3-3.15 3.49-3.63 4.99-0.91 2.88 2.84 3.93 3.76 1.24z"/>
					<path id="path22874" fill-rule="evenodd" class="s10" d="m196.86 276.78c0.4-1.17 0.19-3.25-0.1-4.61-0.97 0.96-2.33 2.59-2.68 3.7-0.68 2.13 2.1 2.91 2.78 0.91z"/>
					<path id="path24814" fill-rule="evenodd" class="s11" d="m196.86 276.72c-0.14-0.25-0.52-0.75-1.19-0.97-0.67-0.21-1.13-0.09-1.51 0.07"/>
					<path id="path26759" fill-rule="evenodd" class="s11" d="m197.02 274.59c-0.19-0.25-0.63-0.5-0.84-0.57-0.23-0.07-0.73-0.06-0.96 0"/>
				</g>
				<g id="g39886">
					<g id="g42310">
						<path id="path39888" fill-rule="evenodd" class="s10" d="m202.06 277.76c0.38-1.63-0.17-4.4-0.74-6.19-1.19 1.42-2.8 3.78-3.13 5.32-0.63 2.96 3.21 3.64 3.87 0.87z"/>
						<path id="path39890" fill-rule="evenodd" class="s10" d="m201.55 277.6c0.29-1.2-0.12-3.25-0.54-4.58-0.87 1.06-2.07 2.81-2.31 3.94-0.47 2.2 2.37 2.7 2.85 0.64z"/>
						<path id="path39892" fill-rule="evenodd" class="s11" d="m201.55 277.55c-0.16-0.24-0.6-0.7-1.28-0.85-0.69-0.15-1.13 0.01-1.5 0.21"/>
						<path id="path39894" fill-rule="evenodd" class="s11" d="m201.5 275.41c-0.21-0.23-0.67-0.44-0.89-0.48-0.24-0.05-0.73 0.01-0.95 0.09"/>
					</g>
				</g>
				<g id="g39896">
					<path id="path39898" fill-rule="evenodd" class="s10" d="m192.55 275.62c0.69-1.52 0.69-4.34 0.48-6.21-1.44 1.17-3.48 3.16-4.11 4.61-1.19 2.77 2.44 4.19 3.63 1.6z"/>
					<path id="path39900" fill-rule="evenodd" class="s10" d="m192.08 275.37c0.52-1.12 0.52-3.21 0.37-4.6-1.07 0.87-2.58 2.35-3.04 3.42-0.89 2.06 1.79 3.1 2.67 1.18z"/>
					<path id="path39902" fill-rule="evenodd" class="s11" d="m192.09 275.32c-0.11-0.26-0.45-0.8-1.09-1.09-0.65-0.28-1.11-0.2-1.51-0.08"/>
					<path id="path39904" fill-rule="evenodd" class="s11" d="m192.46 273.21c-0.17-0.27-0.57-0.56-0.78-0.65-0.22-0.09-0.72-0.13-0.95-0.09"/>
				</g>
				<g id="g39906">
					<path id="path39908" fill-rule="evenodd" class="s10" d="m211.52 278.31c0.05-1.68-1.04-4.28-1.96-5.92-0.88 1.64-1.99 4.27-2 5.84-0.03 3.03 3.87 2.92 3.96 0.08z"/>
					<path id="path39910" fill-rule="evenodd" class="s10" d="m211 278.26c0.04-1.24-0.77-3.17-1.45-4.38-0.65 1.21-1.46 3.16-1.47 4.32-0.02 2.24 2.85 2.17 2.92 0.06z"/>
					<path id="path39912" fill-rule="evenodd" class="s11" d="m210.99 278.2c-0.21-0.19-0.73-0.56-1.43-0.57-0.71-0.01-1.11 0.24-1.43 0.51"/>
					<path id="path39914" fill-rule="evenodd" class="s11" d="m210.51 276.12c-0.26-0.18-0.75-0.3-0.97-0.29-0.25 0-0.72 0.15-0.92 0.28"/>
				</g>
				<g id="g39916">
					<path id="path39918" fill-rule="evenodd" class="s10" d="m216.08 278.29c-0.01-1.68-1.21-4.23-2.19-5.84-0.81 1.67-1.82 4.34-1.77 5.92 0.1 3.02 3.99 2.76 3.96-0.08z"/>
					<path id="path39920" fill-rule="evenodd" class="s10" d="m215.56 278.26c-0.01-1.24-0.89-3.13-1.62-4.32-0.6 1.23-1.34 3.21-1.3 4.38 0.07 2.24 2.94 2.05 2.92-0.06z"/>
					<path id="path39922" fill-rule="evenodd" class="s11" d="m215.55 278.2c-0.22-0.19-0.75-0.53-1.46-0.51-0.7 0.01-1.09 0.28-1.4 0.56"/>
					<path id="path39924" fill-rule="evenodd" class="s11" d="m214.99 276.14c-0.27-0.17-0.76-0.27-0.99-0.26-0.24 0.01-0.7 0.19-0.9 0.32"/>
				</g>
				<g id="g39926">
					<g id="g42304">
						<path id="path39928" fill-rule="evenodd" class="s10" d="m206.74 278.22c0.24-1.66-0.56-4.36-1.28-6.1-1.06 1.53-2.46 4.02-2.64 5.58-0.37 3 3.52 3.34 3.92 0.52z"/>
						<path id="path39930" fill-rule="evenodd" class="s10" d="m206.23 278.12c0.18-1.23-0.41-3.24-0.95-4.52-0.78 1.13-1.81 2.98-1.95 4.13-0.27 2.23 2.6 2.47 2.9 0.39z"/>
						<path id="path39932" fill-rule="evenodd" class="s11" d="m206.22 278.06c-0.18-0.22-0.65-0.64-1.35-0.73-0.7-0.09-1.13 0.11-1.47 0.35"/>
						<path id="path39934" fill-rule="evenodd" class="s11" d="m205.98 275.93c-0.23-0.21-0.71-0.37-0.93-0.4-0.24-0.02-0.73 0.08-0.94 0.18"/>
					</g>
				</g>
				<g id="g40118">
					<path id="path40120" fill-rule="evenodd" class="s10" d="m247.82 261.05c-1.37-0.96-4.14-1.48-6.02-1.61 0.89 1.63 2.48 4 3.78 4.88 2.51 1.68 4.57-1.63 2.24-3.27z"/>
					<path id="path40122" fill-rule="evenodd" class="s10" d="m247.5 261.46c-1.02-0.71-3.07-1.09-4.46-1.2 0.66 1.21 1.84 2.96 2.8 3.61 1.86 1.25 3.38-1.19 1.66-2.41z"/>
					<path id="path40124" fill-rule="evenodd" class="s11" d="m247.44 261.44c-0.28 0.07-0.87 0.3-1.26 0.88-0.4 0.58-0.41 1.06-0.36 1.47"/>
					<path id="path40126" fill-rule="evenodd" class="s11" d="m245.44 260.69c-0.29 0.12-0.66 0.47-0.78 0.65-0.13 0.21-0.26 0.69-0.27 0.92"/>
				</g>
				<g id="g40128">
					<path id="path40130" fill-rule="evenodd" class="s10" d="m250.35 256.56c-1.46-0.82-4.27-1.06-6.15-1.02 1.04 1.54 2.85 3.75 4.24 4.49 2.66 1.43 4.39-2.07 1.91-3.47z"/>
					<path id="path40132" fill-rule="evenodd" class="s10" d="m250.06 257c-1.08-0.61-3.16-0.79-4.55-0.76 0.77 1.14 2.12 2.77 3.14 3.32 1.98 1.06 3.25-1.52 1.41-2.56z"/>
					<path id="path40134" fill-rule="evenodd" class="s11" d="m250 256.98c-0.27 0.1-0.83 0.38-1.17 1-0.33 0.62-0.3 1.09-0.21 1.5"/>
					<path id="path40136" fill-rule="evenodd" class="s11" d="m247.94 256.44c-0.28 0.14-0.61 0.52-0.71 0.72-0.12 0.22-0.2 0.7-0.18 0.94"/>
				</g>
				<g id="g40138">
					<path id="path40140" fill-rule="evenodd" class="s10" d="m245.06 265.09c-1.22-1.15-3.88-2.07-5.72-2.49 0.64 1.75 1.85 4.33 3.02 5.39 2.23 2.04 4.76-0.93 2.7-2.9z"/>
					<path id="path40142" fill-rule="evenodd" class="s10" d="m244.67 265.45c-0.9-0.85-2.87-1.54-4.23-1.85 0.47 1.29 1.38 3.2 2.24 3.99 1.65 1.51 3.52-0.68 1.99-2.14z"/>
					<path id="path40144" fill-rule="evenodd" class="s11" d="m244.62 265.42c-0.28 0.03-0.9 0.17-1.38 0.68-0.48 0.52-0.56 0.99-0.57 1.4"/>
					<path id="path40146" fill-rule="evenodd" class="s11" d="m242.75 264.39c-0.31 0.07-0.72 0.36-0.87 0.52-0.16 0.18-0.35 0.64-0.4 0.87"/>
				</g>
				<g id="g40148">
					<path id="path40150" fill-rule="evenodd" class="s10" d="m253.35 247.64c-1.6-0.49-4.4-0.11-6.23 0.34 1.35 1.28 3.6 3.04 5.12 3.46 2.91 0.82 3.83-2.97 1.11-3.8z"/>
					<path id="path40152" fill-rule="evenodd" class="s10" d="m253.16 248.13c-1.18-0.36-3.25-0.08-4.6 0.25 1 0.94 2.66 2.24 3.78 2.56 2.16 0.6 2.84-2.19 0.82-2.81z"/>
					<path id="path40154" fill-rule="evenodd" class="s11" d="m253.11 248.13c-0.25 0.15-0.74 0.55-0.93 1.23-0.19 0.68-0.06 1.13 0.12 1.5"/>
					<path id="path40156" fill-rule="evenodd" class="s11" d="m250.97 248.04c-0.24 0.2-0.48 0.65-0.54 0.86-0.06 0.24-0.03 0.73 0.04 0.96"/>
				</g>
				<g id="g40168">
					<path id="path40170" fill-rule="evenodd" class="s10" d="m251.98 252.01c-1.54-0.64-4.36-0.53-6.23-0.25 1.23 1.4 3.3 3.37 4.76 3.93 2.83 1.09 4.11-2.59 1.47-3.68z"/>
					<path id="path40172" fill-rule="evenodd" class="s10" d="m251.76 252.49c-1.15-0.48-3.24-0.4-4.62-0.2 0.91 1.04 2.44 2.49 3.53 2.91 2.09 0.81 3.03-1.91 1.09-2.71z"/>
					<path id="path40174" fill-rule="evenodd" class="s11" d="m251.7 252.48c-0.26 0.12-0.79 0.48-1.04 1.13-0.26 0.66-0.17 1.12-0.03 1.51"/>
					<path id="path40176" fill-rule="evenodd" class="s11" d="m249.58 252.19c-0.26 0.18-0.54 0.59-0.62 0.8-0.08 0.23-0.1 0.73-0.06 0.96"/>
				</g>
				<g id="g40178">
					<path id="path40180" fill-rule="evenodd" class="s10" d="m237.93 271.8c-0.83-1.46-3.12-3.1-4.77-4.02 0.12 1.86 0.55 4.68 1.36 6.03 1.56 2.59 4.83 0.46 3.41-2.01z"/>
					<path id="path40182" fill-rule="evenodd" class="s10" d="m237.46 272.03c-0.61-1.08-2.31-2.29-3.52-2.98 0.08 1.37 0.4 3.46 1 4.46 1.16 1.92 3.57 0.35 2.52-1.48z"/>
					<path id="path40184" fill-rule="evenodd" class="s11" d="m237.42 271.99c-0.28-0.06-0.91-0.1-1.51 0.26-0.61 0.36-0.82 0.78-0.95 1.18"/>
					<path id="path40186" fill-rule="evenodd" class="s11" d="m235.93 270.46c-0.32-0.02-0.79 0.14-0.99 0.26-0.2 0.13-0.52 0.51-0.63 0.72"/>
				</g>
				<g id="g40188">
					<path id="path40190" fill-rule="evenodd" class="s10" d="m241.55 268.82c-1.06-1.3-3.59-2.54-5.36-3.18 0.41 1.81 1.29 4.52 2.31 5.72 1.97 2.3 4.84-0.33 3.05-2.54z"/>
					<path id="path40192" fill-rule="evenodd" class="s10" d="m241.12 269.13c-0.78-0.96-2.65-1.89-3.96-2.37 0.3 1.34 0.96 3.35 1.72 4.24 1.45 1.71 3.57-0.24 2.24-1.87z"/>
					<path id="path40194" fill-rule="evenodd" class="s11" d="m241.07 269.09c-0.28-0.01-0.91 0.05-1.45 0.51-0.54 0.45-0.68 0.9-0.74 1.31"/>
					<path id="path40196" fill-rule="evenodd" class="s11" d="m239.35 267.83c-0.32 0.03-0.76 0.27-0.93 0.42-0.18 0.15-0.43 0.58-0.5 0.81"/>
				</g>
				<g id="g40198">
					<path id="path40200" fill-rule="evenodd" class="s10" d="m233.81 274.22c-0.67-1.53-2.77-3.41-4.31-4.51-0.09 1.86 0.04 4.71 0.7 6.14 1.27 2.74 4.75 0.98 3.61-1.63z"/>
					<path id="path40202" fill-rule="evenodd" class="s10" d="m233.32 274.4c-0.5-1.13-2.05-2.53-3.19-3.34-0.06 1.37 0.03 3.49 0.52 4.54 0.94 2.04 3.51 0.74 2.67-1.2z"/>
					<path id="path40204" fill-rule="evenodd" class="s11" d="m233.28 274.35c-0.27-0.08-0.9-0.19-1.54 0.1-0.64 0.29-0.89 0.69-1.06 1.07"/>
					<path id="path40206" fill-rule="evenodd" class="s11" d="m231.96 272.68c-0.31-0.06-0.8 0.05-1.01 0.15-0.22 0.1-0.57 0.45-0.7 0.64"/>
				</g>
				<g id="g40208">
					<path id="path40210" fill-rule="evenodd" class="s10" d="m225.09 277.14c-0.3-1.65-1.91-3.96-3.15-5.38-0.52 1.78-1.06 4.59-0.74 6.13 0.6 2.96 4.39 2.05 3.89-0.75z"/>
					<path id="path40212" fill-rule="evenodd" class="s10" d="m224.57 277.2c-0.22-1.22-1.41-2.93-2.33-3.98-0.38 1.32-0.77 3.39-0.54 4.54 0.45 2.19 3.24 1.52 2.87-0.56z"/>
					<path id="path40214" fill-rule="evenodd" class="s11" d="m224.54 277.15c-0.24-0.15-0.82-0.4-1.51-0.26-0.69 0.13-1.03 0.46-1.29 0.79"/>
					<path id="path40216" fill-rule="evenodd" class="s11" d="m223.65 275.21c-0.3-0.13-0.8-0.13-1.02-0.09-0.23 0.06-0.66 0.31-0.83 0.47"/>
				</g>
				<g id="g40218">
					<path id="path40220" fill-rule="evenodd" class="s10" d="m229.49 275.94c-0.46-1.61-2.29-3.75-3.66-5.04-0.34 1.82-0.6 4.67-0.14 6.17 0.89 2.89 4.58 1.61 3.8-1.13z"/>
					<path id="path40222" fill-rule="evenodd" class="s10" d="m228.98 276.06c-0.34-1.2-1.69-2.79-2.71-3.74-0.25 1.35-0.44 3.46-0.09 4.57 0.66 2.14 3.37 1.2 2.8-0.83z"/>
					<path id="path40224" fill-rule="evenodd" class="s11" d="m228.95 276.01c-0.26-0.13-0.86-0.32-1.54-0.12-0.67 0.21-0.98 0.57-1.2 0.92"/>
					<path id="path40226" fill-rule="evenodd" class="s11" d="m227.87 274.16c-0.31-0.09-0.81-0.05-1.02 0.02-0.23 0.07-0.63 0.37-0.79 0.55"/>
				</g>
				<g id="g40228">
					<path id="path40230" fill-rule="evenodd" class="s10" d="m220.67 277.9c-0.12-1.67-1.47-4.14-2.56-5.69-0.7 1.72-1.53 4.46-1.38 6.02 0.28 3.01 4.15 2.51 3.94-0.33z"/>
					<path id="path40232" fill-rule="evenodd" class="s10" d="m220.15 277.91c-0.09-1.24-1.09-3.07-1.89-4.21-0.52 1.27-1.13 3.29-1.02 4.45 0.21 2.23 3.06 1.86 2.91-0.24z"/>
					<path id="path40234" fill-rule="evenodd" class="s11" d="m220.13 277.85c-0.23-0.17-0.78-0.49-1.48-0.42-0.7 0.06-1.07 0.35-1.36 0.65"/>
					<path id="path40236" fill-rule="evenodd" class="s11" d="m219.44 275.83c-0.27-0.16-0.77-0.22-0.99-0.2-0.25 0.03-0.7 0.23-0.88 0.38"/>
				</g>
				<g id="g40238">
					<path id="path40240" fill-rule="evenodd" class="s10" d="m183.78 271.73c1-1.34 1.59-4.1 1.79-5.97-1.66 0.84-4.08 2.35-4.99 3.63-1.76 2.47 1.49 4.62 3.2 2.34z"/>
					<path id="path40242" fill-rule="evenodd" class="s10" d="m183.38 271.39c0.74-0.99 1.18-3.03 1.33-4.42-1.23 0.62-3.02 1.75-3.69 2.7-1.31 1.82 1.09 3.41 2.36 1.72z"/>
					<path id="path40244" fill-rule="evenodd" class="s11" d="m183.4 271.34c-0.06-0.28-0.27-0.88-0.84-1.29-0.57-0.41-1.05-0.44-1.46-0.4"/>
					<path id="path40246" fill-rule="evenodd" class="s11" d="m184.21 269.36c-0.11-0.3-0.45-0.67-0.63-0.8-0.2-0.14-0.68-0.28-0.91-0.29"/>
				</g>
				<g id="g40248">
					<path id="path40250" fill-rule="evenodd" class="s10" d="m187.95 273.95c0.88-1.43 1.24-4.23 1.27-6.11-1.58 0.98-3.86 2.7-4.66 4.06-1.54 2.6 1.89 4.47 3.39 2.05z"/>
					<path id="path40252" fill-rule="evenodd" class="s10" d="m187.52 273.64c0.66-1.05 0.92-3.12 0.94-4.51-1.16 0.72-2.85 2-3.44 3-1.14 1.93 1.39 3.31 2.5 1.51z"/>
					<path id="path40254" fill-rule="evenodd" class="s11" d="m187.54 273.59c-0.08-0.28-0.34-0.85-0.95-1.21-0.6-0.36-1.08-0.35-1.49-0.27"/>
					<path id="path40256" fill-rule="evenodd" class="s11" d="m188.17 271.55c-0.13-0.29-0.5-0.63-0.69-0.75-0.21-0.12-0.7-0.22-0.94-0.21"/>
				</g>
				<g id="g40258">
					<g id="g43287">
						<path id="path40260" fill-rule="evenodd" class="s10" d="m179.8 269.04c1.19-1.18 2.19-3.81 2.66-5.64-1.76 0.59-4.38 1.72-5.48 2.85-2.1 2.17 0.79 4.79 2.82 2.79z"/>
						<path id="path40262" fill-rule="evenodd" class="s10" d="m179.45 268.65c0.89-0.88 1.63-2.83 1.98-4.17-1.3 0.43-3.24 1.27-4.05 2.11-1.56 1.61 0.57 3.54 2.07 2.06z"/>
						<path id="path40264" fill-rule="evenodd" class="s11" d="m179.48 268.6c-0.01-0.29-0.13-0.91-0.64-1.41-0.5-0.49-0.96-0.58-1.38-0.61"/>
						<path id="path40266" fill-rule="evenodd" class="s11" d="m180.58 266.76c-0.06-0.31-0.34-0.73-0.5-0.88-0.18-0.17-0.63-0.38-0.86-0.43"/>
					</g>
				</g>
				<g id="g40298">
					<path id="path40300" fill-rule="evenodd" class="s10" d="m172.98 262.28c1.47-0.8 3.15-3.07 4.1-4.69-1.86 0.08-4.69 0.45-6.05 1.24-2.62 1.52-0.55 4.82 1.95 3.45z"/>
					<path id="path40302" fill-rule="evenodd" class="s10" d="m172.75 261.81c1.09-0.6 2.34-2.27 3.04-3.47-1.37 0.06-3.46 0.34-4.47 0.92-1.94 1.12-0.42 3.56 1.43 2.55z"/>
					<path id="path40304" fill-rule="evenodd" class="s11" d="m172.8 261.77c0.06-0.28 0.11-0.91-0.24-1.52-0.35-0.61-0.77-0.83-1.16-0.97"/>
					<path id="path40306" fill-rule="evenodd" class="s11" d="m174.35 260.3c0.02-0.32-0.13-0.79-0.24-0.99-0.13-0.2-0.5-0.53-0.71-0.64"/>
				</g>
				<g id="g40308">
					<path id="path40310" fill-rule="evenodd" class="s10" d="m176.17 265.91c1.33-1.02 2.66-3.5 3.37-5.25-1.83 0.35-4.57 1.14-5.8 2.12-2.37 1.88 0.15 4.85 2.43 3.13z"/>
					<path id="path40312" fill-rule="evenodd" class="s10" d="m175.87 265.47c0.99-0.75 1.98-2.59 2.5-3.88-1.34 0.26-3.38 0.85-4.29 1.57-1.75 1.39 0.11 3.58 1.79 2.31z"/>
					<path id="path40314" fill-rule="evenodd" class="s11" d="m175.91 265.42c0.02-0.28-0.02-0.92-0.45-1.47-0.44-0.55-0.88-0.71-1.29-0.78"/>
					<path id="path40316" fill-rule="evenodd" class="s11" d="m177.23 263.75c-0.02-0.32-0.24-0.77-0.38-0.95-0.15-0.18-0.57-0.45-0.79-0.53"/>
				</g>
				<g id="g40318">
					<path id="path40320" fill-rule="evenodd" class="s10" d="m170.47 258.37c1.5-0.74 3.28-2.93 4.3-4.51-1.86 0-4.7 0.25-6.1 0.98-2.68 1.4-0.76 4.79 1.8 3.53z"/>
					<path id="path40322" fill-rule="evenodd" class="s10" d="m170.26 257.89c1.11-0.55 2.43-2.17 3.19-3.34-1.37 0-3.48 0.19-4.51 0.73-1.99 1.04-0.57 3.54 1.32 2.61z"/>
					<path id="path40324" fill-rule="evenodd" class="s11" d="m170.31 257.85c0.07-0.28 0.15-0.91-0.17-1.53-0.32-0.63-0.73-0.86-1.12-1.02"/>
					<path id="path40326" fill-rule="evenodd" class="s11" d="m171.92 256.45c0.04-0.31-0.09-0.8-0.2-0.99-0.11-0.22-0.47-0.56-0.67-0.68"/>
				</g>
				<g id="g40328">
					<path id="path40330" fill-rule="evenodd" class="s10" d="m166.77 249.7c1.61-0.47 3.74-2.31 5.03-3.69-1.83-0.33-4.68-0.58-6.18-0.1-2.88 0.9-1.59 4.58 1.15 3.79z"/>
					<path id="path40332" fill-rule="evenodd" class="s10" d="m166.65 249.19c1.2-0.35 2.78-1.71 3.73-2.73-1.35-0.24-3.46-0.42-4.57-0.07-2.14 0.67-1.18 3.38 0.84 2.8z"/>
					<path id="path40334" fill-rule="evenodd" class="s11" d="m166.71 249.16c0.12-0.26 0.31-0.87 0.1-1.54-0.21-0.67-0.57-0.98-0.92-1.2"/>
					<path id="path40336" fill-rule="evenodd" class="s11" d="m168.54 248.06c0.1-0.3 0.05-0.8-0.02-1.01-0.07-0.23-0.37-0.63-0.55-0.79"/>
				</g>
				<g id="g40338">
					<path id="path40340" fill-rule="evenodd" class="s10" d="m168.3 254.04c1.57-0.6 3.55-2.6 4.72-4.08-1.85-0.18-4.71-0.2-6.16 0.39-2.81 1.13-1.22 4.7 1.44 3.69z"/>
					<path id="path40342" fill-rule="evenodd" class="s10" d="m168.15 253.54c1.16-0.44 2.63-1.93 3.49-3.02-1.37-0.13-3.48-0.14-4.56 0.3-2.08 0.84-0.91 3.46 1.07 2.72z"/>
					<path id="path40344" fill-rule="evenodd" class="s11" d="m168.2 253.5c0.1-0.27 0.24-0.88-0.02-1.54-0.26-0.65-0.65-0.93-1.02-1.12"/>
					<path id="path40346" fill-rule="evenodd" class="s11" d="m169.94 252.27c0.07-0.31-0.02-0.81-0.1-1.02-0.1-0.22-0.42-0.59-0.61-0.73"/>
				</g>
				<path id="path5453" fill-rule="evenodd" class="s12" d="m256.41 247.62l-26.79-7.79-39.16-4.2-27.79 10.42c5 22.96 23.07 34.2 45.13 34.97 20.9 0.73 30.73-4.52 37.65-11.68 6.57-6.8 9.73-15.34 10.96-21.72z"/>
			</g>
			<path id="path10729" fill-rule="evenodd" class="s13" d="m199.37 249.96c-9.71-5.89-6.83-8.55-11.71-25.61-4.65 0.07-11.44-0.53-13.8-1.59-1.85-0.84-2.45-1.85-3.04-3.97-0.33-1.2 0.02-3.11 0.53-5.18-0.65-0.92-1.78-1.18-2.7-1.74-0.82-1.08-0.27-2.21-0.15-2.7-0.58-0.66-1.23-1.7-0.83-2.6 0.67-1.1 0.92-2.19 0.29-3.24-2.46-0.24-6.94-1.75-4.57-7.2 2.14-4.91 5.46-10.37 8.3-15.62l3.3-10.55c6.14-1.12 33.42-0.19 33.44 9.86l4.46 1 4.03 3.02-0.04 0.12 3.9-0.3c-1.68 5.99 4.02 2.25 5.11 31.44 1.48 9.48 2.37 15.48 3.23 24.71-1.13 10.73-9.97 12.04-16.15 12.8-2.57 0.27-8.47-0.03-13.6-2.65z"/>
			<path id="path10731" fill-rule="evenodd" class="s14" d="m175.36 174.33c3.29-1.83 6.56-2.31 9.92-2.12 1.75 0.1 3.97 0.55 5.81 1.82 7.27 5.02 7.28 4.42 10.03 5.35 0.13 0.19 0.32 0.39 0.01 0.54-1.4-0.11-3.37-0.72-5.38-1.51-1.87-0.72-3.92-2.48-6.84-3.45-2.15-0.72-4.59-0.8-6.9-0.74-2.14 0.06-4.28 0.85-6.75 1.64-0.57 0.18-2.08-0.32 0.1-1.53z"/>
			<path id="path2243" fill-rule="evenodd" class="s14" d="m174.09 182.45c2.92-3.11 5.59-3.76 7.9-3.99 3.54-0.35 8.9 0.21 11.76 1.38 2.05 0.84 4.1 0.49 6.67 1.04 0.48 0.1 0.49 0.89 0 0.92-2.41 0.16-5.12-0.25-7.2 0.51-2.53 0.93-5.28 2.08-7.02 2.71-1.69 0.6-3.89 1.02-7.41 0.12-1.16-0.29-2.19-0.41-3.42 0.12-3.08 1.32-3.05-0.91-1.28-2.81z"/>
			<path id="path2249" fill-rule="evenodd" class="s12" d="m167.7 206.68c4.78-0.43 6.22 1.74 10.49 1.69"/>
			<path id="path2251" fill-rule="evenodd" class="s12" d="m168.73 211.88c5.31 0.17 6.63-2.23 9.72-2.93"/>
			<path id="path2253" fill-rule="evenodd" class="s12" d="m168.47 209.22c1.75 0.38 6.3 0.07 7.92-0.16"/>
			<path id="path2245" fill-rule="evenodd" class="s15" d="m175.48 183.48c0.78-1.43 1.95-1.67 2.98-2.34-0.03 1.01 0.46 1.77 1.29 2.28-1.04-0.01-3.71-0.21-4.27 0.06z"/>
			<path id="path2247" fill-rule="evenodd" class="s15" d="m187.62 180.15c-0.02 1.26-0.2 2.47-1.23 3.41 1.79-0.29 3.57-1.73 5.03-3.08-1.26 0.27-2.43-0.14-3.8-0.33z"/>
			<path id="path4483" fill-rule="evenodd" class="s16" d="m170.2 197.72c3.76 3.04 1.74 4.93-0.03 4.85-1.76-0.08-4.3-3.06-4.93-1.39-0.64 1.69 2.85 1.09 2.8 0.61"/>
			<path id="path9516" fill-rule="evenodd" class="s17" d="m195.66 712.87h27.42c5.98-37.83 3.79-79.9 1-113.27 5.6-51.14 11.78-107.84 14-159.74 27.42-18.16-7.95-67.37-5.09-75.94 2.24-15.19 7.34-28.2 13.55-41.81h-89.13c1.42 4.34 7.38 9.25 9.78 11.25 9.81 6.87 7.68 15.06 6.6 22.8-11.23 79.88-21.42 114.68 1.8 228.6-1.86 13.57 1.2 24.2 1.8 36.3-3.18 30.6-5.59 61.2-5.4 91.8z"/>
			<g id="g22227">
				<path id="path14411" fill-rule="evenodd" class="s18" d="m245.73 322.62l-3.1 7.07h-79.01c-2.13-2.15-4.33-4.7-5.51-7.07z"/>
				<path id="path16356" fill-rule="evenodd" class="s12" d="m158.44 323.74h87.18"/>
				<path id="path17327" fill-rule="evenodd" class="s12" d="m163.62 329.83h79.24"/>
				<path id="path17329" fill-rule="evenodd" class="s12" d="m161.8 328.19h81.83"/>
				<g id="g22182">
					<path id="path21207" fill-rule="evenodd" class="s12" d="m163.24 323.93v4.03"/>
					<path id="path22178" fill-rule="evenodd" class="s12" d="m165.13 323.93v4.03"/>
					<path id="path22180" fill-rule="evenodd" class="s12" d="m167.14 323.93v4.03"/>
				</g>
				<g id="g22187">
					<path id="path22189" fill-rule="evenodd" class="s12" d="m177.98 323.93v4.03"/>
					<path id="path22191" fill-rule="evenodd" class="s12" d="m179.88 323.93v4.03"/>
					<path id="path22193" fill-rule="evenodd" class="s12" d="m181.89 323.93v4.03"/>
				</g>
				<g id="g22195">
					<path id="path22197" fill-rule="evenodd" class="s12" d="m192.16 323.93v4.03"/>
					<path id="path22199" fill-rule="evenodd" class="s12" d="m194.06 323.93v4.03"/>
					<path id="path22201" fill-rule="evenodd" class="s12" d="m196.06 323.93v4.03"/>
				</g>
				<g id="g22203">
					<path id="path22205" fill-rule="evenodd" class="s12" d="m206.64 323.93v4.03"/>
					<path id="path22207" fill-rule="evenodd" class="s12" d="m208.53 323.93v4.03"/>
					<path id="path22209" fill-rule="evenodd" class="s12" d="m210.54 323.93v4.03"/>
				</g>
				<g id="g22211">
					<path id="path22213" fill-rule="evenodd" class="s12" d="m221.95 323.93v4.03"/>
					<path id="path22215" fill-rule="evenodd" class="s12" d="m223.85 323.93v4.03"/>
					<path id="path22217" fill-rule="evenodd" class="s12" d="m225.85 323.93v4.03"/>
				</g>
				<g id="g22219">
					<path id="path22221" fill-rule="evenodd" class="s12" d="m235.53 323.93v4.03"/>
					<path id="path22223" fill-rule="evenodd" class="s12" d="m237.42 323.93v4.03"/>
					<path id="path22225" fill-rule="evenodd" class="s12" d="m239.43 323.93v4.03"/>
				</g>
			</g>
			<path id="path22259" fill-rule="evenodd" class="s18" d="m223.58 705.66l-0.98 6.99-50.15-0.16 0.06-6.85z"/>
			<path id="path22261" fill-rule="evenodd" class="s12" d="m171.96 706.7h51.83"/>
			<path id="path22263" fill-rule="evenodd" class="s12" d="m172.26 712.8h50.72"/>
			<path id="path22265" fill-rule="evenodd" class="s12" d="m171.96 711.15h51"/>
			<g id="g22275">
				<path id="path22277" fill-rule="evenodd" class="s12" d="m175.1 706.89v4.03"/>
				<path id="path22279" fill-rule="evenodd" class="s12" d="m177 706.89v4.03"/>
				<path id="path22281" fill-rule="evenodd" class="s12" d="m179.01 706.89v4.03"/>
			</g>
			<g id="g22283">
				<path id="path22285" fill-rule="evenodd" class="s12" d="m187.9 706.89v4.03"/>
				<path id="path22287" fill-rule="evenodd" class="s12" d="m189.79 706.89v4.03"/>
				<path id="path22289" fill-rule="evenodd" class="s12" d="m191.8 706.89v4.03"/>
			</g>
			<g id="g22291">
				<path id="path22293" fill-rule="evenodd" class="s12" d="m202.06 706.89v4.03"/>
				<path id="path22295" fill-rule="evenodd" class="s12" d="m203.95 706.89v4.03"/>
				<path id="path22297" fill-rule="evenodd" class="s12" d="m205.96 706.89v4.03"/>
			</g>
			<g id="g22299">
				<path id="path22301" fill-rule="evenodd" class="s12" d="m215.99 706.89v4.03"/>
				<path id="path22303" fill-rule="evenodd" class="s12" d="m217.89 706.89v4.03"/>
				<path id="path22305" fill-rule="evenodd" class="s12" d="m219.89 706.89v4.03"/>
			</g>
			<path id="path22343" fill-rule="evenodd" class="s12" d="m172.04 705.29h51.96"/>
			<g id="g22349">
				<path id="path22345" fill-rule="evenodd" class="s2" d="m154.24 249.27l12.43 72.88h12.49l-18.28-75.39z"/>
				<path id="path22347" fill-rule="evenodd" class="s17" d="m155.4 248.83l13.18 73.32h8.78l-17.84-74.89z"/>
			</g>
			<g id="g22355">
				<path id="path9524" fill-rule="evenodd" class="s2" d="m256 247.54l-22.57 74.57h10.5l18.02-72.59z"/>
				<path id="path22353" fill-rule="evenodd" class="s17" d="m257.19 247.93l-21.86 74.18h6.69l18.65-73.07z"/>
			</g>
			<g id="g31779">
				<path id="path31781" fill-rule="evenodd" class="s19" d="m130.22 288.55l26.28 5.31-2.94 14.55-27.1-5.23z"/>
				<path id="path31783" fill-rule="evenodd" class="s20" d="m129.78 290.22l26.38 5.47-0.98 4.79-26.62-5.53z"/>
				<path id="path13387" fill-rule="evenodd" class="s20" d="m128.19 296.64l26.61 5.62-0.98 4.45-26.86-5.34z"/>
			</g>
			<g id="g31791">
				<path id="path31793" fill-rule="evenodd" class="s19" d="m64.3 454.28l13.37 10.32-8.41 9.88-10.85-10.62z"/>
				<path id="path31795" fill-rule="evenodd" class="s20" d="m63.5 455.57l12.88 10.32-2.49 2.93-12.1-10.33z"/>
				<path id="path13461" fill-rule="evenodd" class="s20" d="m60.85 459.81l12.12 10.25-2.48 2.93-11.35-10.26z"/>
			</g>
			<path id="path9347" fill-rule="evenodd" class="s14" d="m168.25 201.81c-1.32-0.79-2.59-1.75-3.01-0.63-0.64 1.69 2.85 1.09 2.8 0.61"/>
			<path id="path13238" fill-rule="evenodd" class="s16" d="m175.89 223.35c12.14 1.97 17.55 0.67 22.01-2.37"/>
			<path id="path13240" fill-rule="evenodd" class="s16" d="m188.74 227.92c3.1-0.14 6.13-1.4 9.15-2.7"/>
			<path id="path13242" fill-rule="evenodd" class="s16" d="m189.64 231.74c4.1 0.77 6.76-1.54 9.75-2.85"/>
			<g id="g13389">
				<path id="path13391" fill-rule="evenodd" class="s19" d="m260.49 296.98l26.79 1.09-0.24 14.99-27.66-0.63z"/>
				<path id="path13393" fill-rule="evenodd" class="s20" d="m260.32 298.69l26.92 1.25-0.07 4.88-27.01-1.26z"/>
				<path id="path13395" fill-rule="evenodd" class="s20" d="m259.84 305.28l27.23 1.36-0.04 4.62-27.58-0.81z"/>
			</g>
			<g id="g13453">
				<g id="g31785">
					<path id="path31787" fill-rule="evenodd" class="s19" d="m262.48 459.96l20.42 0.16-0.85 12.89-19.47-0.74z"/>
					<path id="path31789" fill-rule="evenodd" class="s20" d="m262.48 461.82l20.26 0.26-0.21 3.98-20-0.31z"/>
				</g>
				<path id="path13439" fill-rule="evenodd" class="s19" d="m262.48 459.96l20.42 0.16-0.85 12.89-19.47-0.74z"/>
				<path id="path13441" fill-rule="evenodd" class="s20" d="m262.48 461.82l20.26 0.26-0.21 3.98-20-0.31z"/>
				<path id="path13451" fill-rule="evenodd" class="s20" d="m262.48 466.99l19.94 0.27-0.21 3.98-19.68-0.31z"/>
			</g>
			<path id="path7794" fill-rule="evenodd" class="s21" d="m174.76 170.33c-0.06-1.31 0.69-3.41 1.18-5.26 11.39-0.36 19.1-1.22 37.77 8.73-2.16 2.5-4.05 5-5.32 7.5"/>
			<path id="path8327" fill-rule="evenodd" class="s3" d="m250.47 135.2l-81.13-2.17c5.49 11.48 5.44 24.85 5.71 36.8 13.73-0.51 20.66-0.08 27.35 10.48 29.14-0.17 16.1 19.14 23.54 34.56 9.54-26.39 17.9-53.27 24.53-79.67z"/>
			<g id="g13233">
				<path id="path2318" fill-rule="evenodd" class="s13" d="m211.14 186.73c-3.66-2.28-3.81-5.89-2.63-7.87 2.82-4.75 5.05-5.62 7.17-5.05 4.11 1.08 3.63 6.18 2.76 10.54-0.84 4.24-4.14 7.13-5.92 10.69-1.11 2.21-1.61 3.74-2.35 4.57-0.85 0.97-2.34 2.38-4.43 1.43-2.3-1.05-1.8-3.88-0.67-7.46 0.9-2.83 3.6-5.22 4.96-6.04"/>
				<path id="path12256" fill-rule="evenodd" class="s16" d="m208.26 194.57c-0.97-0.3 2.07-2.94 3.64-5.32 2.02-3.07-0.16-4.46-1.15-6.34-1.64-3.1 1.03-7.83 3.86-7.11 3.37 0.85 4.84 5.2 0.7 11.73-1.85 2.93-4.94 7.71-7.05 7.04z"/>
				<path id="path12262" fill-rule="evenodd" class="s22" d="m208.57 198.16c0 0.38-0.13 0.74-0.38 1.01-0.25 0.27-0.58 0.42-0.93 0.42-0.35 0-0.68-0.15-0.93-0.42-0.24-0.27-0.38-0.63-0.38-1.01 0-0.38 0.14-0.74 0.38-1.01 0.25-0.26 0.58-0.41 0.93-0.41 0.35 0 0.68 0.15 0.93 0.41 0.25 0.27 0.38 0.63 0.38 1.01z"/>
			</g>
			<path id="path8688" fill-rule="evenodd" class="s23" d="m169.58 132.87c-5.37-36.96-13.71-83.73-44.15-101.68-4.7-3.41 13.35-15.02 19.1-9.55-0.46-5.98 14.07-10.28 18.23-6.54-0.34-4.56 18.14-7.68 19.98-4.56 5.06-3.22 17.31-4.32 22.32-2.09 3.33-2.28 18.78-1.65 23.12 1.14 4.67-1.92 15.71 0.7 20.28 3.86 3.89-1.38 16.21 1.92 18.41 6 5.54-1.13 15.52 3.79 18.32 8.61 2.91-2.92 20.55 8.18 17.38 10.98-34.04 33.35-49.17 76.05-52.48 95.93"/>
			<path id="path8690" fill-rule="evenodd" class="s24" d="m176.15 133c-1.63-45.83-17.71-98.02-31.64-111.53"/>
			<path id="path8692" fill-rule="evenodd" class="s24" d="m186.54 133.12c-0.75-36.9-13.84-101.37-23.85-118.03"/>
			<path id="path8694" fill-rule="evenodd" class="s24" d="m194.58 133.76c0.61-42.4-3.83-83.68-11.79-123.22"/>
			<path id="path8696" fill-rule="evenodd" class="s24" d="m204.68 133.88l0.4-125.16"/>
			<path id="path8698" fill-rule="evenodd" class="s24" d="m215.42 134.39c-0.41-41.93 3.7-89.09 12.82-124.7"/>
			<path id="path8700" fill-rule="evenodd" class="s24" d="m225.52 134.39c1.51-40.46 7.96-85.91 23.11-121.36"/>
			<path id="path8702" fill-rule="evenodd" class="s24" d="m233.56 134.41c6.1-38.55 20.47-99.05 33.28-114.93"/>
			<path id="path8704" fill-rule="evenodd" class="s24" d="m242.04 134.66c6.19-32.03 24.28-82.03 42.84-106.57"/>
			<path id="path8836" fill-rule="evenodd" class="s25" d="m173.67 145.58l73.12 2.64-2.55 9.35-69.54-3.08c-0.37-2.96-0.42-6.02-1.03-8.91z"/>
			<path id="path8838" fill-rule="evenodd" class="s3" d="m244.79 157.29c5.95 39.83 26.38 73.65 41.53 107.85 7.21 19.23 7.42 32.17 7.42 44.92l16.95-0.12c0.67-20.14-5.03-37.79-11.15-51.86-15.82-36.39-40.3-67.1-54.75-100.79z"/>
		</g>
	</g>
</svg>